<?xml version="1.0" encoding="UTF-8"?>
<svg id="Layer_1" xmlns="http://www.w3.org/2000/svg" version="1.1" viewBox="0 0 120 60">
  <!-- Generator: Adobe Illustrator 29.5.1, SVG Export Plug-In . SVG Version: 2.1.0 Build 141)  -->
  <defs>
    <style>
      .st0 {
        fill: #efe5c7;
      }

      .st1 {
        fill: #f8c811;
      }
    </style>
  </defs>
  <path class="st1" d="M38.8,28.1l2.2-3.1c.4-.6.9-.9,1.6-.9s1,.2,1.4.6.6.8.6,1.3-.1.7-.3,1l-2,2.8,2.4,3c.2.3.4.7.4,1.1,0,.5-.2,1-.6,1.4-.4.4-.8.6-1.4.6s-1-.2-1.3-.6l-2.9-3.6v2c0,.6,0,1-.3,1.3-.4.6-.9.9-1.6.9s-1.1-.2-1.5-.6c-.3-.4-.5-.9-.5-1.6v-7.5c0-.6.2-1.1.5-1.5.3-.4.8-.6,1.4-.6s1.1.2,1.5.6c.2.2.4.5.4.7,0,.1,0,.4,0,.8v1.9ZM29,23.9c1.4,0,2.7.5,3.9,1.4.9.7,1.4,1.5,1.4,2.3,0,.6-.3,1.2-.9,1.6-.3.2-.7.3-1.1.3-.3,0-.6,0-.9-.2-.1,0-.4-.3-.9-.9-.4-.5-1-.7-1.6-.7-.6,0-1.2.2-1.6.7-.4.4-.6,1-.6,1.6,0,.6.2,1.2.6,1.6.4.4,1,.7,1.6.7.5,0,1-.2,1.5-.5l.8-.8c.3-.3.7-.4,1.1-.4s1,.2,1.4.6c.4.3.6.8.6,1.3,0,.7-.4,1.4-1.2,2.2-1.2,1-2.5,1.5-4.1,1.5s-1.8-.2-2.7-.6c-1-.5-1.9-1.3-2.5-2.3-.6-1-.9-2.1-.9-3.3,0-1.8.7-3.3,2-4.5,1.2-1.1,2.6-1.6,4.2-1.7h0ZM22.1,26.5v7.2c0,.6-.1,1.1-.5,1.5-.3.4-.8.7-1.4.7-.5,0-1.1-.2-1.4-.6-.3-.3-.5-.9-.5-1.6v-7.2c0-.8.2-1.4.5-1.8.4-.4.9-.6,1.4-.6.6,0,1.1.2,1.4.6.3.4.5,1,.5,1.8h0ZM11.3,28.1l2.2-3.1c.4-.6.9-.9,1.6-.9s1,.2,1.4.6.6.8.6,1.3-.1.7-.3,1l-2,2.8,2.4,3c.2.3.4.7.4,1.1,0,.5-.2,1-.6,1.4-.4.4-.8.6-1.4.6s-1-.2-1.3-.6l-2.9-3.6v2c0,.6,0,1-.3,1.3-.4.6-.9.9-1.6.9s-1.1-.2-1.5-.6c-.3-.4-.5-.9-.5-1.6v-7.5c0-.6.2-1.1.5-1.5.3-.4.8-.6,1.4-.6s1.1.2,1.5.6c.2.2.4.5.4.7,0,.1,0,.4,0,.8v1.9"/>
  <path class="st0" d="M111.2,31.3l.9,1.5c.2.4.4.8.4,1.2,0,.5-.2,1-.6,1.3s-.8.5-1.4.5-1.2-.3-1.6-.9l-1.6-2.6v1.6c0,.5-.2,1-.5,1.4-.3.4-.8.6-1.3.6-.7,0-1.2-.2-1.5-.7-.3-.4-.5-1-.5-1.6v-7.2c0-1.5.8-2.2,2.4-2.2h2.4c.8,0,1.5.2,2.2.7s1.2,1.1,1.5,1.8c.2.5.4,1.1.4,1.7,0,1.1-.4,2-1.2,2.9h0ZM98.9,32.2h1.7c.7,0,1.3.1,1.6.4.4.4.6.8.6,1.4,0,.5-.2,1-.6,1.4-.3.3-.9.4-1.6.4h-3c-.7,0-1.2,0-1.5-.2-.5-.2-.9-.6-1-1-.1-.3-.2-.8-.2-1.5v-7.4c.1-.4.3-.7.5-.9.3-.3.6-.5,1-.6.2,0,.6,0,1.2,0h3.4c.4,0,.7.2,1,.4.4.3.7.8.7,1.4,0,.6-.2,1.1-.6,1.4-.4.3-.9.4-1.5.4h-1.9v.8h1.5c.4,0,.8.1,1.1.3.3.3.5.6.5,1,0,.9-.6,1.4-1.7,1.4h-1.4v.9h0ZM87.5,27.8h-1c-.5,0-1-.1-1.4-.5-.4-.3-.6-.8-.6-1.3s0-.6.3-1c.2-.3.4-.5.7-.6.3-.1,1-.2,2.1-.2h3.9c.9,0,1.6,0,1.8.2.3.1.6.3.7.6s.3.6.3,1c0,.5-.2,1-.6,1.4-.3.3-.8.4-1.5.4h-.9v5.8c0,.6-.1,1.1-.3,1.5-.3.6-.9.9-1.6.9-.7,0-1.2-.3-1.6-.8-.2-.3-.3-.8-.3-1.5v-5.8h0ZM83,31.3l.9,1.5c.2.4.4.8.4,1.2,0,.5-.2,1-.6,1.3-.4.4-.8.5-1.4.5s-1.2-.3-1.6-.9l-1.6-2.6v1.6c0,.5-.2,1-.5,1.4-.3.4-.8.6-1.3.6-.7,0-1.2-.2-1.5-.7-.3-.4-.5-1-.5-1.6v-7.2c0-1.5.8-2.2,2.4-2.2h2.4c.8,0,1.5.2,2.2.7s1.2,1.1,1.5,1.8c.2.6.4,1.1.4,1.7,0,1.1-.4,2-1.2,2.9h0ZM67,34.3c-.1.4-.3.7-.6,1-.4.4-.9.6-1.4.6-.7,0-1.2-.3-1.6-.8-.2-.3-.3-.7-.3-1.1,0-.4,0-.7.2-1l3.6-7.7c.4-.8.9-1.1,1.8-1.1s1.4.4,1.8,1.2l3.7,7.8c.1.3.2.6.2.9,0,.5-.1.9-.4,1.2-.4.4-.9.7-1.5.7-.5,0-.9-.2-1.2-.5-.2-.2-.5-.6-.7-1.1h-3.6,0ZM57.7,27.7h-1c-.5,0-1-.1-1.4-.5-.4-.3-.6-.8-.6-1.3s0-.6.3-1,.4-.5.7-.6,1-.2,2.1-.2h3.9c.9,0,1.6,0,1.8.2.3.1.6.3.7.6s.3.6.3,1c0,.5-.2,1-.6,1.4-.3.3-.8.4-1.5.4h-.9v5.8c0,.6-.1,1.1-.3,1.5-.3.6-.9.9-1.6.9-.7,0-1.2-.3-1.6-.8-.2-.3-.3-.8-.3-1.5v-5.8h0ZM47.4,31.4c.4,0,.9.2,1.4.6.6.5,1,.7,1.2.7.3,0,.5-.2.5-.5s0-.3-.3-.5c-.1,0-.7-.3-1.7-.7-1.7-.6-2.6-1.7-2.6-3.3s.5-2.2,1.4-2.9c.8-.6,1.8-.9,2.9-.9s1.9.2,2.6.7,1.1,1.1,1.1,1.9-.1.8-.4,1.1c-.3.3-.7.5-1.1.5-.5,0-1-.2-1.6-.7-.4-.3-.6-.4-.8-.4-.3,0-.5.2-.5.5s.4.6,1.2.8c1.1.3,1.9.7,2.5,1.2.8.6,1.2,1.6,1.2,2.7s-.4,2.3-1.3,3c-.8.7-1.9,1-3.2,1s-2.4-.3-3.2-1c-.7-.6-1-1.2-1-1.9s.2-.9.5-1.2.7-.5,1.2-.5"/>
</svg>